<?xml version="1.0" encoding="UTF-8" standalone="no"?>
<!-- Created with Inkscape (http://www.inkscape.org/) -->

<svg
   width="210mm"
   height="297mm"
   viewBox="0 0 210 297"
   version="1.1"
   id="svg26444"
   inkscape:version="1.2.2 (732a01da63, 2022-12-09)"
   sodipodi:docname="tree.svg"
   inkscape:export-filename="tree.png"
   inkscape:export-xdpi="100"
   inkscape:export-ydpi="100"
   xmlns:inkscape="http://www.inkscape.org/namespaces/inkscape"
   xmlns:sodipodi="http://sodipodi.sourceforge.net/DTD/sodipodi-0.dtd"
   xmlns="http://www.w3.org/2000/svg"
   xmlns:svg="http://www.w3.org/2000/svg">
  <sodipodi:namedview
     id="namedview26446"
     pagecolor="#ffffff"
     bordercolor="#666666"
     borderopacity="1.0"
     inkscape:showpageshadow="2"
     inkscape:pageopacity="0.0"
     inkscape:pagecheckerboard="0"
     inkscape:deskcolor="#d1d1d1"
     inkscape:document-units="mm"
     showgrid="false"
     inkscape:zoom="3.1251122"
     inkscape:cx="279.34997"
     inkscape:cy="192.31309"
     inkscape:window-width="1920"
     inkscape:window-height="1057"
     inkscape:window-x="-8"
     inkscape:window-y="-8"
     inkscape:window-maximized="1"
     inkscape:current-layer="layer1" />
  <defs
     id="defs26441">
    <inkscape:path-effect
       effect="bspline"
       id="path-effect32221"
       is_visible="true"
       lpeversion="1"
       weight="33.333333"
       steps="2"
       helper_size="0"
       apply_no_weight="true"
       apply_with_weight="true"
       only_selected="false" />
    <inkscape:path-effect
       effect="bspline"
       id="path-effect32221-9"
       is_visible="true"
       lpeversion="1"
       weight="33.333333"
       steps="2"
       helper_size="0"
       apply_no_weight="true"
       apply_with_weight="true"
       only_selected="false" />
    <inkscape:path-effect
       effect="bspline"
       id="path-effect32221-0"
       is_visible="true"
       lpeversion="1"
       weight="33.333333"
       steps="2"
       helper_size="0"
       apply_no_weight="true"
       apply_with_weight="true"
       only_selected="false" />
  </defs>
  <g
     inkscape:label="Layer 1"
     inkscape:groupmode="layer"
     id="layer1">
    <path
       style="fill:#4e9a06;fill-rule:evenodd;stroke:#000000;stroke-width:1.48167;stroke-linecap:butt;stroke-linejoin:miter;stroke-dasharray:none;stroke-opacity:1"
       d="m 65.132995,65.444267 c -1.257814,-2.215143 -3.773697,-6.645876 -3.183455,-8.89853 0.590241,-2.252654 4.286419,-2.326645 6.217003,-3.810687 1.930584,-1.484041 2.095887,-4.3784 3.566282,-7.171159 1.470396,-2.792759 4.245735,-5.48332 6.706979,-5.118257 2.461244,0.365062 4.60787,3.785064 6.542123,3.322527 1.934254,-0.462536 3.656195,-4.807577 6.010265,-5.277342 2.354069,-0.469764 5.339605,2.935407 6.600967,5.941344 1.261363,3.005937 0.798811,5.612369 2.922721,8.113816 2.12391,2.501447 6.83367,4.897773 6.44466,6.715905 -0.38901,1.818132 -5.87658,3.058426 -7.537692,5.854494 -1.661108,2.796067 0.504261,7.146822 -0.452405,8.250298 -0.956666,1.103475 -5.035339,-1.040437 -7.096155,0.410074 -2.060815,1.450512 -2.102883,6.495219 -3.889876,8.029681 -1.786993,1.534461 -5.319188,-0.441389 -7.190731,-2.711562 -1.871544,-2.270173 -2.081795,-4.834563 -4.247446,-4.939916 -2.16565,-0.105353 -6.286613,2.248889 -8.809693,2.123015 -2.523079,-0.125874 -3.448196,-2.732361 -3.406226,-4.5824 0.04197,-1.850039 1.051187,-2.943081 1.555812,-3.48962 0.504624,-0.546538 0.504681,-0.546538 -0.753133,-2.761681 z"
       id="path32219-8"
       sodipodi:nodetypes="cccccccccccccccccccc"
       inkscape:original-d="m 66.390809,67.65941 c -2.515542,-4.430335 -5.031424,-8.861068 -7.547718,-13.292325 3.696695,-0.07373 7.392873,-0.147724 11.088749,-0.221979 0.165566,-2.894081 0.330869,-5.78844 0.49592,-8.683295 2.775848,-2.69028 5.551187,-5.380841 8.326197,-8.071857 2.147162,3.420698 4.293788,6.8407 6.440298,10.260673 1.722245,-4.344876 3.444187,-8.689917 5.165922,-13.035369 2.98611,3.405774 5.97164,6.81095 8.95698,10.215938 -0.46219,2.606983 -0.92474,5.213415 -1.38771,7.81961 4.710263,2.396773 9.420023,4.793099 14.129313,7.188992 -5.48713,1.240678 -10.9747,2.480972 -16.462873,3.720919 2.16601,4.35165 4.33137,8.702409 6.496673,13.053404 -4.078863,-2.143817 -8.157533,-4.287736 -12.237013,-6.432259 -0.0417,5.045403 -0.0837,10.090111 -0.12621,15.134726 -3.53199,-1.975568 -7.06419,-3.951409 -10.59697,-5.927767 -0.20988,-2.564154 -0.42013,-5.128544 -0.63078,-7.693485 -4.120736,2.35473 -8.241698,4.708974 -12.363141,7.062869 -0.924758,-2.606191 -1.849874,-5.212678 -2.775402,-7.819606 1.009653,-1.092691 2.01887,-2.185733 3.027708,-3.279189 z"
       inkscape:path-effect="#path-effect32221-9" />
    <path
       style="fill:#66ba14;fill-opacity:1;fill-rule:evenodd;stroke:#000000;stroke-width:1.48167;stroke-linecap:butt;stroke-linejoin:miter;stroke-dasharray:none;stroke-opacity:1"
       d="m 95.943813,62.963237 c -0.07809,1.678791 0.663558,3.859402 -0.13547,4.555671 -0.799028,0.696268 -3.138473,-0.09182 -4.564642,0.437314 -1.426169,0.529137 -1.939281,2.375683 -3.209765,4.033217 -1.270484,1.657534 -3.297423,3.125117 -4.586822,2.018068 -1.289399,-1.107048 -1.839946,-4.788943 -3.703488,-5.489335 -1.863542,-0.700392 -5.039538,1.579849 -7.056209,0.485565 -2.01667,-1.094285 -2.871966,-5.561588 -2.288818,-7.79659 0.583147,-2.235003 2.60461,-2.234854 2.626718,-3.707307 0.02211,-1.472453 -1.954465,-4.417146 -1.131866,-5.355788 0.822598,-0.938641 4.444363,0.128492 6.332337,-0.967512 1.887973,-1.096004 2.041791,-4.354516 2.963352,-4.68861 0.92156,-0.334093 2.610821,2.256294 4.292989,2.079771 1.682168,-0.176522 3.356653,-3.120103 4.9058,-3.435364 1.549148,-0.315261 2.97309,1.997914 3.659061,3.764392 0.68597,1.766478 0.633695,2.985778 1.669437,3.865375 1.035742,0.879597 3.157846,1.418953 4.473283,2.723975 1.31544,1.305023 1.82315,3.374136 1.29328,4.075731 -0.52987,0.701595 -2.097231,0.03467 -3.330004,0.28976 -1.232772,0.255089 -2.131084,1.432876 -2.209173,3.111667 z"
       id="path32219"
       sodipodi:nodetypes="cccccccccccccccccccc"
       inkscape:original-d="m 95.12412,62.461538 c 0.741761,2.180437 1.483407,4.361048 2.224937,6.541829 -2.339643,-0.788484 -4.679088,-1.576575 -7.018477,-2.364321 -0.513235,1.846261 -1.026347,3.692807 -1.539368,5.53975 -2.027543,1.468476 -4.054482,2.936059 -6.082851,4.404221 -0.550426,-3.682591 -1.100973,-7.364486 -1.651675,-11.045913 -3.176386,2.280976 -6.352383,4.561217 -9.530142,6.842269 -0.855591,-4.46996 -1.710887,-8.937263 -2.566935,-13.407379 2.022137,4.14e-4 4.0436,5.64e-4 6.064634,4.49e-4 -1.976722,-2.94512 -3.953296,-5.889813 -5.929734,-8.834099 3.62163,1.066763 7.243395,2.133896 10.865399,3.20143 0.153734,-3.259244 0.307553,-6.517756 0.461495,-9.77638 1.68939,2.590382 3.378652,5.180769 5.06818,7.77177 1.674486,-2.944115 3.348971,-5.887696 5.023654,-8.831096 1.423926,2.312955 2.847869,4.626129 4.272,6.939805 -0.052,1.219346 -0.104277,2.438646 -0.156833,3.65805 2.123718,0.539963 4.245822,1.079319 6.368696,1.618673 0.50824,2.070459 1.01595,4.139572 1.52375,6.209886 -1.56778,-0.666949 -3.135146,-1.333871 -4.702752,-2.001049 -0.897589,1.177451 -1.795901,2.355238 -2.693978,3.532105 z"
       inkscape:path-effect="#path-effect32221" />
    <path
       style="fill:#75c02c;fill-opacity:1;fill-rule:evenodd;stroke:#000000;stroke-width:1.48167;stroke-linecap:butt;stroke-linejoin:miter;stroke-dasharray:none;stroke-opacity:1"
       d="m 92.728599,56.928305 c 0.524896,0.647904 1.574855,1.943922 1.264504,2.655644 -0.31035,0.711722 -1.980598,0.838899 -2.732258,1.269549 -0.751661,0.43065 -0.584751,1.164827 -0.878197,2.235762 -0.293447,1.070934 -1.046104,2.476353 -1.789025,2.381032 -0.742921,-0.09532 -1.474948,-1.692827 -2.288973,-1.600302 -0.814024,0.09253 -1.70999,1.874433 -2.427619,2.062222 -0.717628,0.187788 -1.256233,-1.219348 -1.454404,-2.323988 -0.19817,-1.104639 -0.05599,-1.906779 -1.08818,-2.287429 -1.032195,-0.380651 -3.23793,-0.339876 -3.118471,-0.899391 0.11946,-0.559515 2.564631,-1.719478 3.165075,-3.238681 0.600444,-1.519204 -0.64384,-3.396918 -0.349779,-3.736486 0.294061,-0.339569 2.12645,0.858954 3.408677,0.442457 1.282226,-0.416498 2.013525,-2.447937 2.562862,-2.919992 0.549336,-0.472056 0.916689,0.614737 1.132744,1.552891 0.216056,0.938154 0.280687,1.727356 0.946401,1.759779 0.665714,0.03242 1.932487,-0.692104 2.708074,-0.653366 0.775587,0.03874 1.059965,0.840895 1.047064,1.410251 -0.0129,0.569356 -0.323131,0.905744 -0.478252,1.073943 -0.15512,0.1682 -0.155138,0.1682 0.369757,0.816105 z"
       id="path32219-3"
       sodipodi:nodetypes="cccccccccccccccccccc"
       inkscape:original-d="m 92.203704,56.2804 c 1.049821,1.295785 2.09978,2.591803 3.149876,3.888051 -1.670806,0.127504 -3.341053,0.25468 -5.011294,0.381571 0.167093,0.734082 0.334002,1.468259 0.50074,2.202576 -0.753509,1.407765 -1.506167,2.813184 -2.26012,4.220264 -0.732085,-1.597945 -1.464113,-3.195451 -2.196129,-4.792621 -0.895834,1.782435 -1.7918,3.564342 -2.688648,5.347213 -0.538584,-1.407508 -1.077189,-2.814645 -1.615882,-4.221585 0.14207,-0.802309 0.28426,-1.604448 0.42657,-2.406515 -2.20656,0.04106 -4.412295,0.08183 -6.618227,0.122344 2.444997,-1.159491 4.890168,-2.319453 7.335557,-3.47991 -1.24459,-1.87831 -2.488874,-3.756024 -3.733171,-5.633622 1.832315,1.198566 3.664704,2.39709 5.497731,3.595939 0.731787,-2.031795 1.463086,-4.063233 2.193984,-6.094558 0.367614,1.087046 0.734966,2.173838 1.102296,3.261082 0.0645,0.789128 0.12914,1.578329 0.1939,2.367699 1.2667,-0.724677 2.533474,-1.449204 3.800393,-2.173624 0.284268,0.802065 0.568646,1.604221 0.85315,2.406513 -0.310364,0.33628 -0.620594,0.672667 -0.930708,1.009183 z"
       inkscape:path-effect="#path-effect32221-0" />
  </g>
</svg>
