<?xml version="1.0" encoding="UTF-8" standalone="no"?>
<!-- Created with Inkscape (http://www.inkscape.org/) -->

<svg
   width="210mm"
   height="297mm"
   viewBox="0 0 210 297"
   version="1.1"
   id="svg33160"
   inkscape:version="1.2.2 (732a01da63, 2022-12-09)"
   sodipodi:docname="tree_2.svg"
   inkscape:export-filename="tree_2.png"
   inkscape:export-xdpi="200"
   inkscape:export-ydpi="200"
   xmlns:inkscape="http://www.inkscape.org/namespaces/inkscape"
   xmlns:sodipodi="http://sodipodi.sourceforge.net/DTD/sodipodi-0.dtd"
   xmlns="http://www.w3.org/2000/svg"
   xmlns:svg="http://www.w3.org/2000/svg">
  <sodipodi:namedview
     id="namedview33162"
     pagecolor="#ffffff"
     bordercolor="#666666"
     borderopacity="1.0"
     inkscape:showpageshadow="2"
     inkscape:pageopacity="0.0"
     inkscape:pagecheckerboard="0"
     inkscape:deskcolor="#d1d1d1"
     inkscape:document-units="mm"
     showgrid="false"
     inkscape:zoom="1.104894"
     inkscape:cx="112.22796"
     inkscape:cy="133.04443"
     inkscape:window-width="1920"
     inkscape:window-height="1057"
     inkscape:window-x="-8"
     inkscape:window-y="-8"
     inkscape:window-maximized="1"
     inkscape:current-layer="layer1" />
  <defs
     id="defs33157">
    <inkscape:path-effect
       effect="bspline"
       id="path-effect35264"
       is_visible="true"
       lpeversion="1"
       weight="33.333333"
       steps="2"
       helper_size="0"
       apply_no_weight="true"
       apply_with_weight="true"
       only_selected="false" />
  </defs>
  <g
     inkscape:label="Layer 1"
     inkscape:groupmode="layer"
     id="layer1">
    <path
       style="fill:#4e9a06;fill-rule:evenodd;stroke:#000000;stroke-width:1.48167;stroke-linecap:butt;stroke-linejoin:miter;stroke-dasharray:none;stroke-opacity:1"
       d="m 60.449822,38.945393 c 0.08466,-2.031801 0.253985,-6.095654 2.398965,-8.325271 2.144979,-2.229618 6.265189,-2.624707 9.11555,-1.890781 2.85036,0.733926 4.430712,2.596484 5.319538,3.13263 0.888826,0.536146 1.086373,-0.254033 2.469309,-1.354793 1.382936,-1.100761 3.951008,-2.511789 7.394148,-2.568147 3.44314,-0.05636 7.7609,1.241792 9.355204,3.668885 1.594305,2.427093 0.46548,5.982897 0.239859,7.718404 -0.225621,1.735507 0.451669,1.650845 2.272012,2.031899 1.820343,0.381054 4.783503,1.227673 6.462523,4.035828 1.67902,2.808156 2.07411,7.577445 1.19922,10.93564 -0.87488,3.358195 -3.01964,5.305416 -4.85389,6.16619 -1.834255,0.860774 -3.35814,0.635013 -4.049698,0.973802 -0.691558,0.338789 -0.550453,1.241848 0.01402,2.9916 0.564471,1.749751 1.552191,4.346049 0.522202,7.07381 -1.02999,2.72776 -4.07741,5.587081 -6.958313,5.928821 -2.880903,0.34174 -5.595212,-1.834383 -7.260641,-1.980076 -1.665429,-0.145693 -2.28144,1.739168 -4.282638,3.133067 -2.001199,1.393899 -5.38768,2.296961 -8.223877,1.91609 -2.836198,-0.380871 -5.12202,-2.045853 -6.194607,-3.880256 -1.072587,-1.834404 -0.931487,-3.838025 -1.538205,-4.44494 -0.606718,-0.606915 -1.961312,0.183265 -4.515253,0.155092 -2.55394,-0.02817 -6.30729,-0.874792 -8.240596,-3.245311 -1.933306,-2.370519 -2.046187,-6.264968 -1.566391,-8.57927 0.479796,-2.314301 1.552185,-3.04804 1.100742,-4.204989 -0.451442,-1.15695 -2.426884,-2.737305 -2.793919,-5.686494 -0.367035,-2.949189 0.874671,-7.26695 3.231334,-9.440069 2.356664,-2.17312 5.827804,-2.201339 7.563275,-2.215448 1.735471,-0.01411 1.735471,-0.01411 1.820129,-2.045913 z"
       id="path35262"
       inkscape:path-effect="#path-effect35264"
       inkscape:original-d="m 60.365164,40.977194 c 0.16959,-4.063591 0.33892,-8.127443 0.50798,-12.191562 4.12065,-0.39484 8.24086,-0.789929 12.36089,-1.185291 1.58069,1.862903 3.16104,3.725463 4.74116,5.587799 0.19782,-0.789945 0.39537,-1.580123 0.59265,-2.370582 2.56845,-1.410824 5.13652,-2.821855 7.70439,-4.233181 4.318187,1.298465 8.635947,2.596617 12.953527,3.894528 -1.1286,3.556206 -2.25743,7.112008 -3.38654,10.667616 0.67759,-0.0844 1.35488,-0.169063 2.03193,-0.253992 2.963549,0.846918 5.926709,1.693537 8.889669,2.53991 0.39537,4.769744 0.79046,9.539033 1.18529,14.308153 -2.14459,1.947566 -4.28935,3.894791 -6.43443,5.841788 -1.523708,-0.225509 -3.047593,-0.451269 -4.571834,-0.677308 0.141376,0.903362 0.282481,1.806421 0.423325,2.709237 0.98802,2.596668 1.97574,5.192966 2.963219,7.789053 -3.047342,2.85976 -6.094762,5.719081 -9.142635,8.578314 -2.714214,-2.175994 -5.428524,-4.352117 -8.143266,-6.528639 -0.615773,1.885208 -1.231783,3.770069 -1.848075,5.654716 -3.38634,0.903359 -6.77282,1.806422 -10.15963,2.709236 -2.285703,-1.664822 -4.571525,-3.329804 -6.857757,-4.995155 0.141373,-2.003483 0.282474,-4.007104 0.423319,-6.011116 -1.354381,0.790474 -2.708975,1.580654 -4.063852,2.37058 -3.75323,-0.846389 -7.50658,-1.693008 -11.26027,-2.53991 -0.11262,-3.894338 -0.2255,-7.788788 -0.33865,-11.683579 1.07269,-0.733502 2.14508,-1.467239 3.21722,-2.201254 -1.97526,-1.580155 -3.9507,-3.160511 -5.92645,-4.741164 1.24202,-4.317666 2.48373,-8.635426 3.72519,-12.953534 3.47155,-0.02796 6.94269,-0.05618 10.41363,-0.08466 z"
       sodipodi:nodetypes="ccccccccccccccccccccccccccccc" />
  </g>
</svg>
